<svg version="1" xmlns="http://www.w3.org/2000/svg" width="933.333" height="933.333" viewBox="0 0 700.000000 700.000000"><path d="M334.8 20.5c-.2.1-4.1.5-8.8.9-4.7.3-9.8.8-11.5 1-1.6.2-5.7.7-9 1.1-3.3.4-10.3 1.6-15.5 2.7-5.2 1-10.6 2.2-12 2.4-13.2 2.5-40.3 11.4-58 19.1-24.9 10.9-58.7 31.3-75.5 45.7-1.6 1.5-5 4.3-7.5 6.3-7.9 6.5-32.4 31.5-39.7 40.3-26.6 32.3-46.2 67.7-59.2 106.7-3.8 11.4-8.3 28.1-9.6 35.2-.3 1.9-.7 3.7-.9 4-.2.3-.7 2.6-1 5.1-.3 2.5-.8 5.4-1 6.5-.3 1.8-.7 4-2.1 14.5-2.6 18.1-2.5 61.3 0 78 .2 1.4.9 6.1 1.5 10.5 1.9 13.8 4 23 10 45 5.4 19.8 17.6 48.2 29.6 69.2 9.7 17 25.8 39.9 36.4 51.8 9.3 10.4 25.4 26.5 34 33.8 5.2 4.5 9.7 8.4 10 8.7 2.3 2.4 36.1 26 37.3 26 .2 0 4.2 2.2 8.8 4.8 35 20.1 82.9 35.7 121.9 39.7 3 .3 7.3.8 9.5 1 5.5.5 30.8 1.8 37.5 1.8 6.3.1 26.7-1.2 29.8-1.8 1.2-.2 4.5-.6 7.4-.9 11-1.2 29.2-5 44.3-9.1 22.5-6.2 49.6-17.1 68.4-27.4 4.1-2.3 7.6-4.1 7.9-4.1.2 0 7.6-4.7 16.3-10.5 23.4-15.5 39-28.4 57.3-47.4 11.6-12 11.3-11.7 16.6-18.1 2.5-3 4.7-5.7 5-6 1.6-1.5 12.5-16.9 18.2-25.5 19.5-29.7 34.8-64.8 43.7-100.1 2-8 2.4-10.2 3.6-19.8.3-2.7.8-5.2.9-5.5.2-.3.6-2.9 1-5.6.3-2.8.8-5.9 1-7 .3-1.9.7-5.7 2.2-21 1.1-12.5.5-48.4-1.1-56.6-.2-1-.7-4.9-1-8.6-.4-3.7-.9-7-1-7.3-.2-.3-.6-2.6-1-5-2.9-19.5-12-51.6-19.6-68.7-1.1-2.3-1.9-4.4-1.9-4.7 0-.3-2.5-5.9-5.6-12.3-28.1-58.7-69.6-104.7-126.9-140.9-7.7-4.8-31.8-17.2-42-21.6-11.6-5-39.1-14.5-44.9-15.5-1-.2-5.3-1.2-9.5-2.2-4.2-1.1-9.4-2.2-11.6-2.7-2.2-.4-4.4-.8-5-1-1.7-.4-10-1.6-21-2.9-1.6-.2-5.2-.7-8-1-4.9-.7-48-1.6-48.7-1zm41.9 140.1c-.3.3-1.2.4-1.9.1-.8-.3-.5-.6.6-.6 1.1-.1 1.7.2 1.3.5zm8 1c-.3.3-1.2.4-1.9.1-.8-.3-.5-.6.6-.6 1.1-.1 1.7.2 1.3.5zm11.6 2.1c-.7.2-1.9.2-2.5 0-.7-.3-.2-.5 1.2-.5s1.9.2 1.3.5zm8.4 1.9c-.3.3-1.2.4-1.9.1-.8-.3-.5-.6.6-.6 1.1-.1 1.7.2 1.3.5zM296 169c-.8.5-1.9 1-2.5 1-.5 0-.3-.5.5-1s2-1 2.5-1c.6 0 .3.5-.5 1zm121 1c.8.5 1.1 1 .5 1-.5 0-1.7-.5-2.5-1s-1-1-.5-1c.6 0 1.7.5 2.5 1zm5 2c.8.5 1.1 1 .5 1-.5 0-1.7-.5-2.5-1s-1-1-.5-1c.6 0 1.7.5 2.5 1zm10 5.6c0 .2-.9 0-2-.6s-2-1.3-2-1.6c0-.2.9 0 2 .6s2 1.3 2 1.6zm6.6 3.4c2.4 1.7 4.4 3.3 4.4 3.6 0 .3-2.1-.9-4.7-2.7-5.8-3.9-5.8-3.9-4.9-3.9.4 0 2.7 1.4 5.2 3zm14.5 11.7c.8 1-1-.2-3.8-2.6-2.9-2.4-5.3-4.6-5.3-4.8 0-.7 7.5 5.4 9.1 7.4zM253 194.4c0 .2-.8 1-1.7 1.7-1.6 1.3-1.7 1.2-.4-.4 1.3-1.6 2.1-2.1 2.1-1.3zm-4 3.9c0 .2-1.2 1.4-2.7 2.8l-2.8 2.4 2.4-2.8c2.3-2.5 3.1-3.2 3.1-2.4zm-7 8.1c0 .2-.8 1-1.7 1.7-1.6 1.3-1.7 1.2-.4-.4 1.3-1.6 2.1-2.1 2.1-1.3zm-3 4c0 .2-.8 1-1.7 1.7-1.6 1.3-1.7 1.2-.4-.4 1.3-1.6 2.1-2.1 2.1-1.3zM390.5 249c1 1.1 1.6 2 1.3 2-.3 0-1.3-.9-2.3-2-1-1.1-1.6-2-1.3-2 .3 0 1.3.9 2.3 2zm7 10.2c3.6 6.7 2.5 5.8-2-1.7-1.9-3.2-2.9-5.2-2.2-4.6.8.6 2.6 3.4 4.2 6.3zm7.2 22c-.3.8-.6.5-.6-.6-.1-1.1.2-1.7.5-1.3.3.3.4 1.2.1 1.9zm87.3 10.2c0 .3-.4.8-1 1.1-.5.3-1 .1-1-.4 0-.6.5-1.1 1-1.1.6 0 1 .2 1 .4zm-1.3 7.8c-.3.8-.6.5-.6-.6-.1-1.1.2-1.7.5-1.3.3.3.4 1.2.1 1.9zm-193 93c-.3.7-.5.2-.5-1.2s.2-1.9.5-1.3c.2.7.2 1.9 0 2.5zm0 4c-.3.8-.6.5-.6-.6-.1-1.1.2-1.7.5-1.3.3.3.4 1.2.1 1.9zm0 4c-.3.8-.6.5-.6-.6-.1-1.1.2-1.7.5-1.3.3.3.4 1.2.1 1.9zm0 8c-.3.7-.5.2-.5-1.2s.2-1.9.5-1.3c.2.7.2 1.9 0 2.5zm0 6c-.3.7-.5.2-.5-1.2s.2-1.9.5-1.3c.2.7.2 1.9 0 2.5zm0 6c-.3.7-.5.2-.5-1.2s.2-1.9.5-1.3c.2.7.2 1.9 0 2.5zm0 7c-.3.8-.6.5-.6-.6-.1-1.1.2-1.7.5-1.3.3.3.4 1.2.1 1.9zm0 4c-.3.8-.6.5-.6-.6-.1-1.1.2-1.7.5-1.3.3.3.4 1.2.1 1.9zm0 5c-.3.7-.5.2-.5-1.2s.2-1.9.5-1.3c.2.7.2 1.9 0 2.5zm0 7c-.3.8-.6.5-.6-.6-.1-1.1.2-1.7.5-1.3.3.3.4 1.2.1 1.9zm0 5c-.3.7-.5.2-.5-1.2s.2-1.9.5-1.3c.2.7.2 1.9 0 2.5zm0 4c-.3.8-.6.5-.6-.6-.1-1.1.2-1.7.5-1.3.3.3.4 1.2.1 1.9zm0 8c-.3.7-.5.2-.5-1.2s.2-1.9.5-1.3c.2.7.2 1.9 0 2.5zm0 7c-.3.8-.6.5-.6-.6-.1-1.1.2-1.7.5-1.3.3.3.4 1.2.1 1.9zm0 5c-.3.7-.5.2-.5-1.2s.2-1.9.5-1.3c.2.7.2 1.9 0 2.5zm0 4c-.3.8-.6.5-.6-.6-.1-1.1.2-1.7.5-1.3.3.3.4 1.2.1 1.9zm0 4c-.3.8-.6.5-.6-.6-.1-1.1.2-1.7.5-1.3.3.3.4 1.2.1 1.9zm0 4c-.3.8-.6.5-.6-.6-.1-1.1.2-1.7.5-1.3.3.3.4 1.2.1 1.9zm0 8c-.3.7-.5.2-.5-1.2s.2-1.9.5-1.3c.2.7.2 1.9 0 2.5zm0 7c-.3.8-.6.5-.6-.6-.1-1.1.2-1.7.5-1.3.3.3.4 1.2.1 1.9zm0 5c-.3.7-.5.2-.5-1.2s.2-1.9.5-1.3c.2.7.2 1.9 0 2.5zm0 4c-.3.8-.6.5-.6-.6-.1-1.1.2-1.7.5-1.3.3.3.4 1.2.1 1.9zm0 4c-.3.8-.6.5-.6-.6-.1-1.1.2-1.7.5-1.3.3.3.4 1.2.1 1.9zm0 8c-.3.7-.5.2-.5-1.2s.2-1.9.5-1.3c.2.7.2 1.9 0 2.5zm0 6c-.3.7-.5.2-.5-1.2s.2-1.9.5-1.3c.2.7.2 1.9 0 2.5z"/></svg>